<svg xmlns="http://www.w3.org/2000/svg" xml:space="preserve" width="1500" height="1500" data-id="lg_KZmLMFdXmelYBQJJL5" data-version="1" viewBox="0 0 1500 1500"><path stroke="transparent" d="M0 0h1500v1500H0z"/><g data-padding="20"><g transform="translate(-638.368 -638.368)scale(1.80577)"><rect width="448.284" height="448.284" x="85.816" y="85.816" fill="none" stroke="#fff" stroke-width="22.5" paint-order="stroke" rx="0" ry="0" transform="translate(400 400)scale(1.19)"/><rect width="232.611" height="379.68" x="252.544" y="179.01" fill="none" rx="0" ry="0" transform="translate(400.5 400.14)"/><path fill="#fff" stroke="#fff" stroke-width="7.32" d="M793.68 877.7H677.76V642.5H788.3q23.86 0 41.84 8.06 17.97 8.07 27.88 22.68 9.92 14.62 9.92 33.77 0 15.46-7.9 28.39-7.9 12.94-21.34 21 17.14 8.07 27.22 21.84Q876 792.02 876 809.49q0 20.16-10.25 35.62-10.25 15.45-28.89 24.02-18.65 8.57-43.18 8.57Zm-67.2-194.88v55.78h58.8q15.79 0 25.03-7.56t9.24-20.33-9.24-20.33-25.03-7.56Zm0 93.74v60.82h63.5q16.8 0 26.88-8.23t10.08-22.01q0-14.11-10.08-22.34-10.08-8.24-26.88-8.24Z"/></g><path fill="transparent" stroke="transparent" stroke-width="1.876" d="M250 250h1000v1000H250z"/></g></svg>